<?xml version="1.0"?><svg width="640" height="480" xmlns="http://www.w3.org/2000/svg">
 <title>Nerdy Glasses</title>
 <metadata id="metadata7">image/svg+xml</metadata>
 <g>
  <title>Layer 1</title>
  <path d="m413.200562,168.891022c-16.38623,-1.843048 -33.342896,-2.840393 -49.489075,0.574844c-48.100586,10.17424 -49.070648,29.994171 -29.268829,70.96608c16.135529,33.385773 49.542847,41.753235 83.222809,33.750977c15.525513,-3.688812 26.148102,-14.56485 31.155151,-29.406036c5.284454,-15.663727 9.303925,-32.296997 8.398895,-48.760071c-1.21167,-22.046371 -26.163971,-25.117493 -44.018951,-27.125763l0,-0.000031z" id="path2832-1" stroke-width="4" stroke="#000000" fill="#000000" opacity="0.85"/>
  <path d="m190.891602,173.891022c16.386292,-1.843048 33.342987,-2.840393 49.489166,0.574844c48.100677,10.17424 49.070557,29.994156 29.268738,70.96608c-16.135529,33.385773 -49.542755,41.753235 -83.222809,33.750977c-15.525421,-3.688812 -26.148071,-14.56485 -31.15506,-29.406036c-5.284515,-15.663727 -9.303802,-32.296997 -8.398956,-48.760071c1.211792,-22.046371 26.16394,-25.117493 44.018921,-27.125763l0,-0.000031z" id="path2832" stroke-width="4" stroke="#000000" fill="#000000" opacity="0.85"/>
  <path d="m407.181152,161.486465c-29.259979,0.195541 -57.457184,9.341675 -86.177032,12.998764c-11.98703,1.526398 -24.341187,1.900879 -36.348328,0.481445c-15.963867,-1.887207 -31.420105,-6.900528 -47.373322,-9.147293c-14.257019,-2.007874 -28.693359,-4.10405 -43.040375,-4.188492c-25.071777,-0.147568 -49.321198,7.702225 -73.900406,11.939621c0,7.190262 -1.46022,16.418793 2.2146,21.472046c3.79039,5.212143 10.184647,9.979187 11.843353,17.042801c3.933456,16.751251 9.517715,33.172058 16.657654,48.91394c3.469788,7.649963 10.018982,12.983673 17.33165,16.657654c17.609711,8.84726 38.452652,10.148224 57.7724,7.365936c27.512024,-3.962067 42.437164,-24.605072 53.824524,-48.191711c4.262421,-9.588013 4.737823,-20.653351 10.350891,-29.415756c3.333954,-5.204666 11.076141,-3.013947 16.609406,-3.033035c5.533264,-0.019089 10.222595,9.18396 11.939667,15.309662c6.07724,21.67923 16.210236,44.67981 36.348511,56.039154c30.072876,16.963165 77.449707,13.79007 96.961182,-16.802094c7.635986,-11.972626 9.745331,-26.499908 13.576447,-40.05545c2.332367,-8.25235 4.415558,-18.090561 12.709961,-22.627533c3.347412,-1.830994 0.998352,-9.137299 1.492432,-13.383896c0.53833,-4.627579 1.576294,-8.719772 -5.006958,-9.628723c-11.483215,-1.585556 -22.621979,-6.407898 -34.374512,-8.039978c-11.137299,-1.546661 -22.049194,-3.78299 -33.411743,-3.707062zm-193.440872,7.702972c8.305649,-0.052856 16.576431,0.555099 24.649521,2.262741c48.100494,10.17424 49.07312,29.991821 29.271301,70.963684c-16.135529,33.385834 -49.560242,41.751038 -83.24028,33.748596c-15.525513,-3.688751 -26.141953,-14.526337 -31.148941,-29.367554c-5.284454,-15.663727 -9.28183,-32.306366 -8.376968,-48.769455c1.211807,-22.046387 26.14827,-25.144775 44.00325,-27.152985c8.193161,-0.921539 16.536377,-1.632233 24.842117,-1.685028zm175.627823,0c8.305725,0.052841 16.648956,0.763489 24.842102,1.685028c17.85498,2.008209 42.791504,5.106598 44.003174,27.152985c0.904938,16.463089 -3.092438,33.105728 -8.376892,48.769455c-5.006989,14.841217 -15.623535,25.678802 -31.149017,29.367554c-33.679962,8.002441 -67.104767,-0.362762 -83.240204,-33.748596c-19.801819,-40.971863 -18.829193,-60.789383 29.271301,-70.963684c8.073181,-1.707642 16.343781,-2.315536 24.649536,-2.262741z" id="path2830" stroke-width="4" stroke="#000000" fill="#000000"/>
  <path transform="rotate(167.904, 176.367, 183.891)" id="svg_2" d="m172.147095,181.445602c2.958725,-0.08432 6.020279,-0.130432 8.934998,0.026657c8.683914,0.466965 8.859131,1.377838 5.283981,3.259415c-2.913315,1.53421 -8.944229,1.91832 -15.024811,1.550781c-2.802658,-0.169342 -4.720749,-0.669464 -5.624481,-1.351181c-0.954071,-0.719193 -1.679749,-1.483047 -1.516586,-2.239716c0.218475,-1.012482 4.723587,-1.153717 7.946899,-1.245956l0,0z" stroke-width="0" stroke="#000000" fill="#ffffff" opacity="0.85"/>
  <path id="svg_3" transform="rotate(167.904, 359.809, 182.621)" d="m355.154053,180.619324c3.26358,-0.069427 6.640747,-0.106995 9.856506,0.021622c9.579956,0.383194 9.773132,1.129684 5.829315,2.672806c-3.213654,1.257385 -9.867218,1.57254 -16.575073,1.271149c-3.092102,-0.138947 -5.207764,-0.548569 -6.204956,-1.107529c-1.052521,-0.58992 -1.853027,-1.21637 -1.672821,-1.836426c0.241364,-0.830322 5.210938,-0.945984 8.767029,-1.021622l0,0z" stroke-width="0" stroke="#000000" fill="#ffffff" opacity="0.85"/>
 </g>
</svg>