<svg width="250" height="250" xmlns="http://www.w3.org/2000/svg">
 <!-- Created with Method Draw - http://github.com/duopixel/Method-Draw/ -->
 <g>
  <title>Layer 1</title>
  <ellipse fill-opacity="0" ry="125" rx="125" id="svg_1" cy="125" cx="125" stroke-width="1.5" stroke="#000" fill="#fff"/>
  <path stroke="#000" fill-opacity="0" id="svg_2" d="m177.59238,132.33308c-6.15981,-9.31288 -13.7063,-16.85056 -21.27145,-22.12048c-8.82674,5.40486 -19.57664,8.69259 -31.30844,8.69259c-11.74065,0 -22.50636,-3.29735 -31.32169,-8.69259c-7.56512,5.26993 -15.11007,12.8076 -21.29449,22.12048c-14.3402,21.61249 -15.92603,43.7845 -3.54021,49.53645c5.54915,2.58955 11.37068,0.65637 17.38149,-4.18192c-1.05833,4.90602 -1.68629,10.22702 -1.68629,15.79553c0,24.72639 11.48959,44.7556 25.6535,44.7556c8.53133,0 12.76009,-7.29596 14.78746,-18.46237c2.02745,11.16641 6.25322,18.46237 14.7646,18.46237c14.18233,0 25.67194,-20.02921 25.67194,-44.7556c0,-5.56851 -0.61493,-10.88951 -1.69173,-15.79553c6.0294,4.83829 11.83942,6.77147 17.39839,4.18192c12.40601,-5.75195 10.8015,-27.92397 -3.54308,-49.53645zm-52.59134,-21.85977c23.83669,0 43.16093,-16.15894 43.16093,-36.08572s-19.32425,-36.08575 -43.16093,-36.08575c-23.83404,0 -43.17425,16.15586 -43.17425,36.08575s19.34021,36.08572 43.17425,36.08572zm29.48453,-74.06915c12.45624,3.83432 4.95987,-6.11568 4.95987,-12.91365s7.68831,-15.11056 -4.95987,-11.72927c-13.27469,3.55812 -24.03746,5.51387 -24.03746,12.32136s10.76277,8.22945 24.03746,12.32156zm-29.40438,-4.84208c7.88769,0 3.48289,-3.33924 3.48289,-7.45356c0,-4.11795 4.41635,-7.44783 -3.48289,-7.44783s-3.771,3.33945 -3.771,7.44783c0,4.12383 -4.11678,7.45356 3.771,7.45356zm-29.57517,4.84208c13.27628,-4.08263 24.03746,-5.51745 24.03746,-12.32156s-10.76118,-8.76324 -24.03746,-12.32136c-12.64677,-3.39089 -4.96272,4.92538 -4.96272,11.72927s-7.50339,16.74162 4.96272,12.91365z" stroke-width="1.5" fill="#fff"/>
 </g>
</svg>
