<svg width="370" height="500" xmlns="http://www.w3.org/2000/svg">
 <!-- Created with Method Draw - http://github.com/duopixel/Method-Draw/ -->
 <g>
  <title>Layer 1</title>
  <path stroke="#258cd1" fill-opacity="0"  id="svg_1" d="m301.59607,264.91873c-13.65714,-18.94778 -30.38641,-34.28214 -47.15837,-45.00238c-19.56909,10.99605 -43.40131,17.68469 -69.41068,17.68469c-26.02771,0 -49.8952,-6.70953 -69.43824,-17.68469c-16.77226,10.72025 -33.49982,26.0546 -47.20959,45.00238c-31.79134,43.96814 -35.30757,89.07397 -7.8494,100.77646c12.30312,5.26837 25.20837,1.3342 38.53543,-8.50919c-2.34623,9.98135 -3.73878,20.80652 -3.73878,32.13599c0,50.30298 25.47128,91.05072 56.87291,91.05072c18.91467,0 28.28816,-14.84274 32.7836,-37.55978c4.49405,22.71704 13.86342,37.55978 32.73227,37.55978c31.44191,0 56.91505,-40.74774 56.91505,-91.05072c0,-11.32947 -1.36478,-22.15463 -3.75128,-32.13599c13.36731,9.84338 26.24792,13.77756 38.57193,8.50919c27.50363,-11.70248 23.94571,-56.80832 -7.85486,-100.77646zm-116.59456,-44.47189c52.84528,0 95.68687,-32.8748 95.68687,-73.41261s-42.8416,-73.41235 -95.68687,-73.41235c-52.83817,0 -95.71464,32.86742 -95.71464,73.41235s42.87647,73.41261 95.71464,73.41261zm65.36739,-150.68717c27.6153,7.80161 10.99527,-12.44166 10.99527,-26.27063s17.04517,-30.74053 -10.99527,-23.86173c-29.431,7.23736 -53.29057,11.21732 -53.29057,25.06532s23.85957,16.74204 53.29057,25.06705zm-65.18884,-9.84969c17.48709,0 7.72188,-6.79315 7.72188,-15.16449c0,-8.37663 9.79015,-15.15026 -7.72188,-15.15026s-8.36032,6.79316 -8.36032,15.15026c0,8.39101 -9.12683,15.16449 8.36032,15.16449zm-65.56703,9.84969c29.43324,-8.30536 53.29001,-11.22385 53.29001,-25.06705s-23.85677,-17.82795 -53.29001,-25.06532c-28.03781,-6.89842 -11.0019,10.01909 -11.0019,23.86173s-16.63486,34.05923 11.0019,26.27063z" stroke-width="3" fill="#fff"/>
 </g>
</svg>
