<svg width="250" height="250" xmlns="http://www.w3.org/2000/svg">
 <!-- Created with Method Draw - http://github.com/duopixel/Method-Draw/ -->
 <g>
  <title>Layer 1</title>
  <ellipse fill-opacity="0" ry="125" rx="125" id="svg_1" cy="125" cx="125" stroke-width="1.5" stroke="#000" fill="#fff"/>
  <path fill-opacity="0" stroke="#000" id="svg_2" d="m122.02312,213.74968c-12.02399,-2.82747 -18.99173,-14.45164 -18.16919,-24.99695c-0.30837,-13.77393 1.12534,-28.26736 -6.30527,-40.9324c-4.23573,-9.45615 -11.45124,-17.80527 -14.46204,-27.65949c-3.74801,-15.28839 0.88,-32.61605 14.82657,-42.8798c15.72771,-11.94472 40.843,-13.50134 58.15637,-3.34937c12.21013,7.45509 21.02124,19.75093 20.69304,33.16866c1.43318,10.02615 -3.03114,19.45648 -8.28268,28.07524c-3.76357,6.93994 -8.15677,13.73064 -11.57297,20.74768c-0.89978,14.38789 -0.38374,28.90759 -2.82539,43.17105c-4.06822,11.05328 -19.39909,18.56818 -32.05843,14.65538zm31.76118,-25.72549c-7.13644,-3.40964 -17.39185,-1.1929 -25.68764,-1.92688c-6.77612,1.20117 -18.81623,-2.46404 -22.41845,3.03392c8.23766,2.85661 17.9202,0.71526 26.68995,1.18782c7.01837,-0.59731 15.09225,0.56671 21.41614,-2.29486zm-0.53464,-6.41617c1.05057,-8.66205 -14.40448,-4.24199 -20.68315,-5.53146c-8.31005,1.49068 -21.53481,-3.19077 -26.75976,3.46471c3.09659,6.68797 16.90794,1.98419 24.15987,3.46837c7.73463,-0.24295 15.75792,0.24585 23.28304,-1.40161l0,0zm0.09641,-15.17697c2.04005,-16.87456 13.68036,-30.9249 20.42188,-46.36069c5.54205,-18.48133 -5.43387,-39.59531 -25.30569,-47.35284c-19.77855,-8.68872 -46.13041,-2.12512 -57.30903,14.89971c-10.76899,14.06305 -8.71482,33.17049 1.81191,46.84669c7.51144,11.95192 13.50284,25.38374 12.52695,39.2932c15.59042,0 31.18027,0 46.77128,0c0.3609,-2.44167 0.72122,-4.88406 1.0827,-7.32607zm-34.51548,-23.90672c-6.17598,-9.51932 -12.51709,-19.11217 -16.81895,-29.42889c3.86742,-4.43699 4.99214,-9.37946 6.1935,-14.59261c10.85415,-1.88934 -1.38121,10.96346 8.86616,11.25298c9.09667,3.50798 5.10576,-17.02164 12.66366,-9.62173c-5.4253,8.12128 10.65646,16.20044 11.24597,4.58263c-0.77924,-8.77197 9.72089,-7.1288 5.62738,0.82954c0.33737,4.09383 7.85696,5.26722 7.9855,8.56004c-5.41293,10.40791 -10.11948,21.15331 -16.52917,31.11743c-1.4429,-3.8577 5.67496,-13.52657 7.94971,-19.2037c4.38837,-4.90749 8.16052,-18.13239 -3.28201,-16.32947c-6.63593,9.1754 -15.56451,-5.78383 -22.06382,3.00945c-5.51613,1.45854 -14.19312,-8.46811 -15.79306,1.07675c4.15469,11.33661 12.80023,20.99834 17.32319,32.21803c-1.5344,-0.80247 -2.40823,-2.20946 -3.36805,-3.47044l0,0zm-8.66956,-41.54736c-3.00399,-1.2996 1.26618,6.90747 0,0l0,0zm17.95355,0.96902c-3.89941,-5.84872 -1.80888,7.09637 0,0zm17.40175,0c-3.90012,-5.84872 -1.80759,7.09637 0,0zm-81.01295,-43.21723c-6.89172,-6.19947 -14.50966,-12.01647 -20.50337,-18.8497c14.97306,10.98545 28.6774,23.35736 42.17101,35.76029c3.58312,4.36417 -6.25089,-4.07506 -8.08133,-5.48964c-4.57986,-3.75928 -9.09915,-7.57551 -13.58631,-11.42095l0,0zm106.42055,17.72458c11.64902,-12.86435 22.5168,-26.35057 35.07608,-38.52962c-2.10362,5.24344 -8.87241,11.5179 -13.12903,16.91852c-7.10863,7.83829 -13.75316,16.12577 -21.88147,23.15332c-1.01407,0.95065 -2.52878,-1.30067 -0.06558,-1.54222l0,0l0,0zm-25.23151,-12.20392c4.02487,-10.20353 9.86299,-19.9157 16.37592,-29.04747c-0.15208,5.06571 -7.05923,14.66721 -10.37903,20.94852c-1.87808,2.52781 -3.46259,6.55889 -5.99689,8.09894zm-51.53956,-13.0857c-2.80316,-3.62445 -11.24294,-12.06406 -9.66713,-13.21477c8.13639,7.99584 16.41241,16.24907 22.25716,25.70529c-4.97712,-3.38327 -8.55894,-8.27053 -12.59003,-12.49052l0,0zm32.22149,-2.85226c-0.56797,-3.40418 1.19393,-19.65361 2.17221,-8.61987c0.00435,6.91327 0.81822,14.69605 -1.35274,20.98819c-0.93014,-4.04551 -0.70519,-8.2572 -0.81947,-12.36832z" stroke-width="1.5" fill="#fff"/>
 </g>
</svg>
