<svg width="250" height="250" xmlns="http://www.w3.org/2000/svg">
 <!-- Created with Method Draw - http://github.com/duopixel/Method-Draw/ -->
 <g>
  <title>Layer 1</title>
  <ellipse fill-opacity="0" ry="125" rx="125" id="svg_1" cy="125" cx="125" stroke-width="1.5" stroke="#258cd1" fill="#fff"/>
  <path fill-opacity="0" stroke="#258cd1" id="svg_2" d="m166.65729,57.5995c-7.10313,-2.9673 -15.67084,-0.41556 -19.13458,5.72682c-3.45358,6.14103 -0.48088,13.51649 6.63326,16.4933c22.30421,9.36227 37.71271,29.04966 37.69078,51.86333c-0.06551,31.81876 -29.9319,57.56285 -66.83578,57.61864c-36.9149,-0.06519 -66.7813,-25.80948 -66.84688,-57.61864c-0.02186,-22.82315 15.38674,-42.52823 37.7127,-51.87284c7.1251,-2.97681 10.08683,-10.36178 6.64422,-16.5028c-3.45292,-6.12337 -11.99866,-8.69412 -19.13466,-5.71732c-31.87734,13.29921 -53.86448,41.50148 -53.88634,74.09296c0.02186,45.45882 42.7503,82.29803 95.51096,82.31705c52.73869,-0.01901 95.48904,-36.85823 95.48904,-82.31705c-0.01103,-32.58197 -21.96541,-60.76523 -53.84271,-74.08345zm-41.64633,60.70815c7.90099,0 14.31564,-5.52042 14.31564,-12.3486l0,-57.61997c0,-6.81868 -6.41466,-12.33908 -14.31564,-12.33908c-7.92291,0 -14.32662,5.52991 -14.32662,12.33908l0,57.61997c0,6.81868 6.40371,12.3486 14.32662,12.3486z" stroke-width="1.5" fill="#fff"/>
 </g>
</svg>
