<svg width="250" height="250" xmlns="http://www.w3.org/2000/svg">
 <!-- Created with Method Draw - http://github.com/duopixel/Method-Draw/ -->
 <g>
  <title>Layer 1</title>
  <ellipse fill-opacity="0" ry="125" rx="125" id="svg_1" cy="125" cx="125" stroke-width="1.5" stroke="#000"/>
  <path stroke="#000" fill-opacity="0" id="svg_2" d="m33.59174,199.5903c0,-1.05524 1.40422,-1.90897 3.13781,-1.90897c1.73344,0 3.13731,0.85373 3.13731,1.90897c0,1.05362 -1.40387,1.9097 -3.13731,1.9097c-1.7336,0 -3.13781,-0.85608 -3.13781,-1.9097zm6.43206,-13.71268c0,-2.63416 3.5102,-4.77191 7.84399,-4.77191c4.3336,0 7.84394,2.13776 7.84394,4.77191c0,2.63661 -3.51033,4.77118 -7.84394,4.77118c-4.33379,0 -7.84399,-2.13457 -7.84399,-4.77118zm14.90383,-20.78873c0,-7.28783 12.2154,-13.19051 27.29669,-13.19051c15.08133,0 27.29672,5.90268 27.29672,13.19051c0,7.287 -12.21539,13.19051 -27.29672,13.19051c-15.08129,0 -27.29669,-5.9035 -27.29669,-13.19051zm-23.42763,-59.71585c0,-31.42219 41.84235,-56.87305 93.49983,-56.87305c51.65724,0 93.50017,25.45086 93.50017,56.87305c0,31.41991 -41.84293,56.8723 -93.50017,56.8723c-51.65749,0 -93.49983,-25.45239 -93.49983,-56.8723z" stroke-width="1.5"/>
 </g>
</svg>
