<svg width="580" height="800" xmlns="http://www.w3.org/2000/svg">
 <!-- Created with Method Draw - http://github.com/duopixel/Method-Draw/ -->
 <g>
  <title>Layer 1</title>
  <path id="svg_1" d="m507.93301,425.13898c-25.52734,-31.92682 -56.79471,-57.76639 -88.14227,-75.83044c-36.57718,18.52783 -81.12662,29.79825 -129.74268,29.79825c-48.64685,0 -93.26048,-11.30405 -129.79016,-29.79825c-31.34746,18.0639 -62.61466,43.90363 -88.23814,75.83044c-59.4262,74.08786 -65.99522,150.09399 -14.66925,169.81238c22.99234,8.87744 47.11695,2.25043 72.02254,-14.33667c-4.38491,16.81793 -6.98396,35.05896 -6.98396,54.14935c0,84.76239 47.61104,153.42395 106.30396,153.42395c35.34935,0 52.87297,-25.01154 61.27531,-63.28998c8.40271,38.27844 25.90982,63.28998 61.18057,63.28998c58.77194,0 106.38306,-68.66156 106.38306,-153.42395c0,-19.09039 -2.55099,-37.33142 -7.01559,-54.14935c24.98538,16.5871 49.06168,23.21411 72.10184,14.33667c51.40631,-19.71838 44.75708,-95.72452 -14.68521,-169.81238zm-217.93259,-74.93701c98.77777,0 178.85193,-55.39496 178.85193,-123.7037s-80.07416,-123.70341 -178.85193,-123.70341c-98.76173,0 -178.89999,55.38362 -178.89999,123.70341s80.13821,123.7037 178.89999,123.7037zm122.18448,-253.91393c51.61325,13.14581 20.5528,-20.96477 20.5528,-44.26735s31.8576,-51.79964 -20.5528,-40.20867c-55.00937,12.19686 -99.60663,18.90218 -99.60663,42.23769s44.59732,28.21052 99.60663,42.23833zm-121.84958,-16.59731c32.68674,0 14.43002,-11.44733 14.43002,-25.55251c0,-14.11598 18.30447,-25.53046 -14.43002,-25.53046s-15.6261,11.44738 -15.6261,25.53046c0,14.13811 -17.06107,25.55251 15.6261,25.55251zm-122.55127,16.59731c55.00946,-13.99503 99.60654,-18.91357 99.60654,-42.23833s-44.59708,-30.04083 -99.60654,-42.23769c-52.41051,-11.62399 -20.56879,16.88375 -20.56879,40.20867s-31.09227,57.39109 20.56879,44.26735z" stroke-width="2" stroke="#258cd1" fill="#fff" fill-opacity="0"/>
 </g>
</svg>
